<svg width="76" height="76" viewBox="0 0 76 76" fill="none" xmlns="http://www.w3.org/2000/svg">
<path fill-rule="evenodd" clip-rule="evenodd" d="M30.1784 7.82153C30.6232 8.26684 30.873 8.87049 30.873 9.49986C30.873 10.1292 30.6232 10.7329 30.1784 11.1782L15.2318 26.1249H47.5001C53.1691 26.1249 58.6059 28.3769 62.6145 32.3855C66.6231 36.394 68.8751 41.8309 68.8751 47.4999C68.8751 53.1689 66.6231 58.6057 62.6145 62.6143C58.6059 66.6229 53.1691 68.8749 47.5001 68.8749H38.0001C37.3702 68.8749 36.7661 68.6246 36.3207 68.1792C35.8753 67.7338 35.6251 67.1298 35.6251 66.4999C35.6251 65.87 35.8753 65.2659 36.3207 64.8205C36.7661 64.3751 37.3702 64.1249 38.0001 64.1249H47.5001C49.6833 64.1249 51.8452 63.6948 53.8622 62.8594C55.8793 62.0239 57.712 60.7993 59.2558 59.2555C60.7995 57.7117 62.0241 55.879 62.8596 53.862C63.6951 51.8449 64.1251 49.6831 64.1251 47.4999C64.1251 45.3166 63.6951 43.1548 62.8596 41.1378C62.0241 39.1207 60.7995 37.288 59.2558 35.7442C57.712 34.2004 55.8793 32.9759 53.8622 32.1404C51.8452 31.3049 49.6833 30.8749 47.5001 30.8749H15.2318L30.1784 45.8215C30.4118 46.039 30.5989 46.3012 30.7287 46.5925C30.8586 46.8838 30.9284 47.1983 30.934 47.5172C30.9396 47.8361 30.8809 48.1529 30.7615 48.4486C30.642 48.7443 30.4643 49.013 30.2387 49.2385C30.0132 49.464 29.7446 49.6418 29.4488 49.7613C29.1531 49.8807 28.8363 49.9394 28.5175 49.9337C28.1986 49.9281 27.8841 49.8583 27.5927 49.7285C27.3014 49.5987 27.0392 49.4115 26.8218 49.1782L7.82177 30.1782C7.37701 29.7329 7.1272 29.1292 7.1272 28.4999C7.1272 27.8705 7.37701 27.2668 7.82177 26.8215L26.8218 7.82153C27.2671 7.37677 27.8707 7.12695 28.5001 7.12695C29.1295 7.12695 29.7331 7.37677 30.1784 7.82153Z" fill="white"/>
</svg>
