<svg xmlns="http://www.w3.org/2000/svg" width="110.761" height="42.921" viewBox="0 0 110.761 42.921"><g transform="translate(-44 -28.769)"><g transform="translate(44 28.769)"><path d="M-741.018,407.465a12.572,12.572,0,0,1-3.726,8.972,12.664,12.664,0,0,1-8.972,3.726v-4.85A7.779,7.779,0,0,0-748.182,413a7.7,7.7,0,0,0,2.315-5.533,7.851,7.851,0,0,0-7.848-7.848,7.905,7.905,0,0,0-5.555,2.293,7.865,7.865,0,0,0-2.293,5.555h-4.85a12.57,12.57,0,0,1,3.725-8.972,12.662,12.662,0,0,1,8.972-3.726A12.7,12.7,0,0,1-741.018,407.465Z" transform="translate(768.243 -379.072)" fill="#ff7f11"/><path d="M-708.314,386.44h-4.85A23.567,23.567,0,0,0-736.707,362.9v-4.85A28.375,28.375,0,0,1-708.314,386.44Z" transform="translate(751.234 -358.047)" fill="#ff7f11"/><path d="M-735.621,396.953a20.439,20.439,0,0,1-6.018,14.528l-3.439-3.439a15.647,15.647,0,0,0,4.607-11.089,15.7,15.7,0,0,0-15.7-15.7,15.647,15.647,0,0,0-11.088,4.607l-3.439-3.439a20.438,20.438,0,0,1,14.527-6.018A20.538,20.538,0,0,1-735.621,396.953Z" transform="translate(770.694 -368.559)" fill="#ff7f11"/></g><g transform="translate(93.756 30.686)"><path d="M-653.306,376.958V363.4a.336.336,0,0,1,.336-.336h2.288a.336.336,0,0,1,.336.336v13.553a.336.336,0,0,1-.336.336h-2.288A.336.336,0,0,1-653.306,376.958Z" transform="translate(653.726 -362.839)" fill="#fff"/><path d="M-627.531,369.207v1.171a7.352,7.352,0,0,1-.573,3.026,6.136,6.136,0,0,1-1.534,2.141A6.43,6.43,0,0,1-631.8,376.8a7.284,7.284,0,0,1-2.415.415,7.3,7.3,0,0,1-2.847-.556,7.093,7.093,0,0,1-2.308-1.547,7.05,7.05,0,0,1-1.547-2.33,7.5,7.5,0,0,1-.556-2.919,7.914,7.914,0,0,1,.534-2.932,6.89,6.89,0,0,1,1.509-2.33,6.884,6.884,0,0,1,2.283-1.526,7.356,7.356,0,0,1,2.855-.547,7.169,7.169,0,0,1,2.778.517,6.4,6.4,0,0,1,2.09,1.376,5.091,5.091,0,0,1,1.111,1.616.337.337,0,0,1-.171.427l-2.013.97a.333.333,0,0,1-.445-.154,3.611,3.611,0,0,0-1.146-1.4,3.607,3.607,0,0,0-2.206-.675,4.121,4.121,0,0,0-2.214.59,4.03,4.03,0,0,0-1.483,1.633,5.385,5.385,0,0,0-.521,2.436,5.165,5.165,0,0,0,.551,2.441,4.181,4.181,0,0,0,1.517,1.646,4.187,4.187,0,0,0,2.227.59,4.476,4.476,0,0,0,1.821-.372,3.348,3.348,0,0,0,1.376-1.077,2.777,2.777,0,0,0,.526-1.7v-.038h-3.467a.334.334,0,0,1-.333-.333v-1.812a.338.338,0,0,1,.333-.338h6.091A.338.338,0,0,1-627.531,369.207Z" transform="translate(646.949 -362.53)" fill="#fff"/><path d="M-592.922,363.4v13.554a.336.336,0,0,1-.338.338h-1.787a.342.342,0,0,1-.269-.137l-6.3-8.51v8.309a.335.335,0,0,1-.333.338h-2.287a.336.336,0,0,1-.338-.338V363.4a.335.335,0,0,1,.338-.333h1.77a.33.33,0,0,1,.265.133l6.318,8.326V363.4a.334.334,0,0,1,.333-.333h2.287A.335.335,0,0,1-592.922,363.4Z" transform="translate(625.822 -362.839)" fill="#fff"/><path d="M-571.424,376.958V363.4a.336.336,0,0,1,.336-.336h2.288a.336.336,0,0,1,.336.336v13.553a.336.336,0,0,1-.336.336h-2.288A.336.336,0,0,1-571.424,376.958Z" transform="translate(606.844 -362.839)" fill="#fff"/><path d="M-557.453,376.958V365.983a.336.336,0,0,0-.336-.336h-2.937a.336.336,0,0,1-.336-.336V363.4a.336.336,0,0,1,.336-.336h9.448a.336.336,0,0,1,.336.336v1.906a.336.336,0,0,1-.336.336h-2.88a.336.336,0,0,0-.336.336v10.975a.336.336,0,0,1-.336.336h-2.288A.336.336,0,0,1-557.453,376.958Z" transform="translate(600.911 -362.839)" fill="#fff"/><path d="M-533.946,376.958V363.4a.336.336,0,0,1,.336-.336h8.894a.336.336,0,0,1,.336.336v1.906a.336.336,0,0,1-.336.336h-5.935a.336.336,0,0,0-.336.336v2.555a.336.336,0,0,0,.336.336h5.553a.336.336,0,0,1,.336.336v1.906a.336.336,0,0,1-.336.336h-5.553a.336.336,0,0,0-.336.336v2.593a.336.336,0,0,0,.336.336h5.935a.336.336,0,0,1,.336.336v1.905a.336.336,0,0,1-.336.336h-8.894A.336.336,0,0,1-533.946,376.958Z" transform="translate(585.385 -362.839)" fill="#fff"/><path d="M-646.746,430.822a7.9,7.9,0,0,1-2.979-.554,7.247,7.247,0,0,1-2.4-1.556,7.231,7.231,0,0,1-1.594-2.339,7.286,7.286,0,0,1-.573-2.9,7.4,7.4,0,0,1,.563-2.9,7.018,7.018,0,0,1,1.585-2.329,7.339,7.339,0,0,1,2.4-1.547,7.957,7.957,0,0,1,3-.554,7.955,7.955,0,0,1,3,.554,7.34,7.34,0,0,1,2.4,1.547,7.025,7.025,0,0,1,1.585,2.329,7.409,7.409,0,0,1,.563,2.9,7.284,7.284,0,0,1-.573,2.9,7.235,7.235,0,0,1-1.594,2.339,7.25,7.25,0,0,1-2.4,1.556A7.9,7.9,0,0,1-646.746,430.822Zm0-2.673a4.673,4.673,0,0,0,1.8-.344,4.525,4.525,0,0,0,1.461-.964,4.275,4.275,0,0,0,.974-1.48,5.045,5.045,0,0,0,.344-1.89,4.972,4.972,0,0,0-.344-1.881,4.4,4.4,0,0,0-.974-1.48,4.332,4.332,0,0,0-1.461-.964,4.791,4.791,0,0,0-1.8-.334,4.793,4.793,0,0,0-1.8.334,4.335,4.335,0,0,0-1.461.964,4.4,4.4,0,0,0-.974,1.48,4.972,4.972,0,0,0-.344,1.881,5.045,5.045,0,0,0,.344,1.89,4.276,4.276,0,0,0,.974,1.48,4.528,4.528,0,0,0,1.461.964A4.675,4.675,0,0,0-646.746,428.149Zm2.92,3.994-3.855-6.736a.336.336,0,0,1,.292-.5h2.282a.336.336,0,0,1,.291.168l3.906,6.737a.336.336,0,0,1-.291.5h-2.334A.336.336,0,0,1-643.826,432.143Z" transform="translate(654.289 -393.225)" fill="#fff"/><path d="M-599.188,417.008v13.554a.338.338,0,0,1-.338.338h-2.287a.337.337,0,0,1-.333-.338v-8.831l-4.3,5.54h-.38l-4.3-5.736v9.027a.338.338,0,0,1-.338.338h-2.287a.338.338,0,0,1-.333-.338V417.008a.338.338,0,0,1,.333-.338h2.359a.336.336,0,0,1,.269.137l4.548,6.031,4.415-6.027a.336.336,0,0,1,.274-.141h2.355A.338.338,0,0,1-599.188,417.008Z" transform="translate(631.267 -393.529)" fill="#fff"/><path d="M-568.9,430.822a6.484,6.484,0,0,1-2.511-.487,5.814,5.814,0,0,1-2.024-1.384,5.7,5.7,0,0,1-1.159-1.821.337.337,0,0,1,.179-.428l1.841-.827a.34.34,0,0,1,.438.158,4.371,4.371,0,0,0,1.336,1.543,3.54,3.54,0,0,0,2.091.669,2.623,2.623,0,0,0,1.05-.191,1.653,1.653,0,0,0,.687-.525,1.291,1.291,0,0,0,.248-.792,1.256,1.256,0,0,0-.306-.85,2.082,2.082,0,0,0-.955-.563l-2.788-.916a5.454,5.454,0,0,1-2.559-1.576,3.688,3.688,0,0,1-.859-2.453,3.973,3.973,0,0,1,.621-2.215,4.158,4.158,0,0,1,1.737-1.489,5.881,5.881,0,0,1,2.568-.535,6.279,6.279,0,0,1,2.368.439,5.516,5.516,0,0,1,1.881,1.241,5.107,5.107,0,0,1,1.078,1.629.336.336,0,0,1-.176.431l-1.809.819a.341.341,0,0,1-.444-.168,3.328,3.328,0,0,0-1.065-1.25,3.112,3.112,0,0,0-1.833-.563,2.715,2.715,0,0,0-1.05.191,1.579,1.579,0,0,0-.707.544,1.378,1.378,0,0,0-.248.812,1.28,1.28,0,0,0,.324.869,2.125,2.125,0,0,0,.974.583l2.73.878a5.518,5.518,0,0,1,2.568,1.546,3.6,3.6,0,0,1,.85,2.425,3.857,3.857,0,0,1-.649,2.206,4.377,4.377,0,0,1-1.785,1.508A6.055,6.055,0,0,1-568.9,430.822Z" transform="translate(608.67 -393.225)" fill="#fff"/></g></g></svg>